<svg class="logo" viewBox="0 0 564.28 670.9">
  <defs>
    <style>
      .cls-1 {
        fill: #c7b299;
      }

      .cls-2 {
        fill: #39b54a;
      }

      .cls-3 {
        fill: none;
        stroke: #fff;
        stroke-linecap: round;
        stroke-dashoffset: 7px;
        stroke-width: 10px;
        stroke-dasharray: 20 15 15 15 20;
      }
    </style>
  </defs>
  <g id="base_tree" data-name="base tree">
    <path class="cls-1" d="M554.54,722.23c0-41.57.62-81.65,1.27-131.19-15.24.59-30.48,1.27-45.72,1.64C501.94,770,475,875.91,400.16,921c77.4-6.57,176.7-11.52,229.93-13.64C591.05,878.26,554.54,825.4,554.54,722.23Z" transform="translate(-229.97 -250.13)" />
    <path class="cls-2" d="M527.71,603.09c-15.13,23.44-48.6,37.09-79.66,37.09-43.71,0-51-22.65-71.28-32.47-19-9.21-36.75-7-54.13-24.34-12.86-12.8-11.66-34.39-23.48-46-16.1-15.78-48.56-14-48.56-54,0-9.68,1.74-19.53,1.74-28.82,0-35.79-22.37-14.21-22.37-67.77,0-32.55,23.09-35.88,37.66-45.49,22-14.56,40.6-47.44,66-47.44,8,0,16.65,3.24,26.31,11.29,29-6.37,48-25.9,70.72-25.9,9.62,0,19.91,3.5,31.91,13,12.9-25.26,51.78-42.11,85.94-42.11,18.27,0,35.19,4.82,46.07,15.74,35.44.9,149.93,44.14,149.93,79.28,0,11.12-10.07,30-11.86,40.1,19.63,15,53.49,11.11,53.49,50.84,0,24.32-19.35,35.42-19.63,43,19.83,9.62,27.69,21.86,27.69,34,0,23-27.91,45.74-56.3,50.54A50.63,50.63,0,0,1,740.18,578c0,24.4-22.39,35.44-45.81,35.44-14.61,0-29.62-4.29-39.87-12.32-22,4.12-20.74,35.78-61.21,35.78-26.82,0-55.95-16.52-65.58-33.79" transform="translate(-229.97 -250.13)" />
  </g>
  <g id="symbolic_tree" data-name="symbolic tree">
    <line class="cls-3" x1="238.02" y1="126.4" x2="326.03" y2="126.4" />
    <line class="cls-3" x1="281.02" y1="195.03" x2="369.03" y2="195.03" />
    <line class="cls-3" x1="281.26" y1="160.71" x2="369.32" y2="160.71" />
    <line class="cls-3" x1="281.02" y1="263.67" x2="369.03" y2="263.67" />
    <line class="cls-3" x1="281.02" y1="297.98" x2="369.03" y2="297.98" />
    <line class="cls-3" x1="194.75" y1="92.07" x2="346.42" y2="92.07" />
    <line class="cls-3" x1="238.02" y1="229.43" x2="326.03" y2="229.43" />
  </g>
</svg>