<svg id="whole-word-search" width="500" height="500" viewBox="0 0 500 500" onclick="toggleSearchMode()">
  <line x1="34.98" y1="131.38" x2="35" y2="368.6" />
  <line x1="465" y1="131.4" x2="465" y2="368.6" />
  <g style="stroke-width: 0px">
    <path d="M168.94,253.56v65.53c-19.33-.48-20.05,4.85-19-17C80.82,376,20.06,229.54,150,246.6c3.81-38.95-44.87-32.18-67.58-18.26-1.93-20.05,1.16-21.27,20-24.87C138.35,194.4,174.67,211.84,168.94,253.56Zm-36.6,7.8c-38.93-1.82-58.74,41.07-15.9,44.91,24.74.23,34.75-21.52,33.53-44.91C150,261.36,147.9,262.08,132.34,261.36Z" />
    <path d="M225.44,218.91c28.55-41.74,72.74-2.58,72.18,42.87-.57,46.26-43.12,84.94-72.18,42.85,1.74,20.89-2.72,13.1-18.87,14.46V159.54h18.87Zm55.48,42.86c.3-58.56-55.79-58.37-55.48,0S280.61,320.44,280.92,261.77Z" />
    <path d="M422,313.24c-89.48,51.95-130.31-109.93-32.09-111.77,21.16,1.45,36.64,3.56,32.09,28.61a51.33,51.33,0,0,0-15-9.64c-86.85-26.22-59.17,134,15,73.22Z" />
  </g>
  <title>Match whole word only</title>
</svg>
